<svg xmlns="http://www.w3.org/2000/svg" viewBox="0 0 46 40"><path d="M17.832 6.529c-1.627.884-2.933 2.656-3.348 4.544-.594 2.702-.998 3.015-3.188 2.465C8.418 12.816 4 15.229 4 17.523 4 18.628 5.255 19 8.988 19c4.496 0 5.347-.381 8.628-3.866l3.641-3.865 3.699 3.927c3.447 3.659 4.031 3.906 8.544 3.616 2.664-.172 5.02-.848 5.236-1.503.579-1.76-4.851-4.201-8.004-3.598-2.397.458-2.732.21-2.732-2.022 0-1.557-1.022-3.348-2.635-4.616-3.083-2.425-3.953-2.488-7.533-.544M19.2 17.2c-1.681 1.681-1.497 5.472.3 6.162 1.901.729 4.464-.225 4.618-1.719.467-4.502-2.331-7.03-4.918-4.443M3.999 22.628c.001 2.029 3.026 3.695 6.474 3.565 2.978-.111 3.461.228 4.034 2.839C16.253 36.983 28 36.207 28 28.14c0-1.996.358-2.163 3.406-1.592 2.706.508 3.854.192 5.584-1.538 2.717-2.717 2.254-3.182-3.552-3.571-4.22-.282-4.995.035-8.448 3.454l-3.801 3.763-3.413-3.219c-3.582-3.38-13.778-5.459-13.777-2.809" fill-rule="evenodd"/></svg>